0
SECTION
2
HEADER
9
$INSUNITS
70
4
9
$ACADVER
1
AC1014
9
$HANDSEED
5
FFFF
0
ENDSEC
0
SECTION
2
TABLES
0
TABLE
2
VPORT
5
8
100
AcDbSymbolTable
0
ENDTAB
0
TABLE
2
LTYPE
5
5
100
AcDbSymbolTable
0
LTYPE
5
14
100
AcDbSymbolTableRecord
100
AcDbLinetypeTableRecord
2
BYBLOCK
70
0
0
LTYPE
5
15
100
AcDbSymbolTableRecord
100
AcDbLinetypeTableRecord
2
BYLAYER
70
0
0
LTYPE
5
16
100
AcDbSymbolTableRecord
100
AcDbLinetypeTableRecord
2
DASHED
70
0
3
Dashed __ __ __ __ __ __ __ __ __ __ __ __ __ _
72
65
73
2
40
0.75
49
0.5
74
0
49
-0.25
74
0
0
ENDTAB
0
TABLE
2
LAYER
5
2
100
AcDbSymbolTable
70
2
0
LAYER
5
50
100
AcDbSymbolTableRecord
100
AcDbLayerTableRecord
2
0
70
0
62
7
6
CONTINUOUS
0
ENDTAB
0
TABLE
2
STYLE
5
3
100
AcDbSymbolTable
70
1
0
STYLE
5
11
100
AcDbSymbolTableRecord
100
AcDbTextStyleTableRecord
2
STANDARD
70
0
0
ENDTAB
0
TABLE
2
VIEW
5
6
100
AcDbSymbolTable
70
0
0
ENDTAB
0
TABLE
2
UCS
5
7
100
AcDbSymbolTable
70
0
0
ENDTAB
0
TABLE
2
APPID
5
9
100
AcDbSymbolTable
70
2
0
APPID
5
12
100
AcDbSymbolTableRecord
100
AcDbRegAppTableRecord
2
ACAD
70
0
0
ENDTAB
0
TABLE
2
DIMSTYLE
5
A
100
AcDbSymbolTable
70
1
0
ENDTAB
0
TABLE
2
BLOCK_RECORD
5
1
100
AcDbSymbolTable
70
1
0
BLOCK_RECORD
5
1F
100
AcDbSymbolTableRecord
100
AcDbBlockTableRecord
2
*MODEL_SPACE
0
BLOCK_RECORD
5
1B
100
AcDbSymbolTableRecord
100
AcDbBlockTableRecord
2
*PAPER_SPACE
0
ENDTAB
0
ENDSEC
0
SECTION
2
BLOCKS
0
BLOCK
5
20
100
AcDbEntity
100
AcDbBlockBegin
2
*MODEL_SPACE
0
ENDBLK
5
21
100
AcDbEntity
100
AcDbBlockEnd
0
BLOCK
5
1C
100
AcDbEntity
100
AcDbBlockBegin
2
*PAPER_SPACE
0
ENDBLK
5
1D
100
AcDbEntity
100
AcDbBlockEnd
0
ENDSEC
0
SECTION
2
ENTITIES
0
LWPOLYLINE
5
100
100
AcDbEntity
8
0
100
AcDbPolyline
90
6
70
1
43
0.0
10
236.000026325242
20
90.500032356598879
10
116.00002632524411
20
-17.499995231631242
10
116.00002632524533
20
-77.499995231631246
10
266.0000263252453
20
-77.499995231628233
10
296.00002632524473
20
-47.499981437514371
10
296.000026325242
20
90.500032356598879
0
CIRCLE
5
101
100
AcDbEntity
8
0
100
AcDbCircle
10
281.00002632524445
20
-2.4999952316279295
30
0
40
3.2499999999999645
210
-1.2886717701852945e-62
220
-2.9558743728809875e-30
230
1
0
CIRCLE
5
102
100
AcDbEntity
8
0
100
AcDbCircle
10
251.00002632524439
20
-2.4999952316285379
30
0
40
3.25
210
-1.2886717701852945e-62
220
-2.9558743728809875e-30
230
1
0
CIRCLE
5
103
100
AcDbEntity
8
0
100
AcDbCircle
10
131.00002632524502
20
-62.499995231630948
30
0
40
3.2499999999999822
210
-1.2886717701852945e-62
220
-2.9558743728809875e-30
230
1
0
CIRCLE
5
104
100
AcDbEntity
8
0
100
AcDbCircle
10
251.00002632524505
20
-62.499995231628532
30
0
40
3.25
210
-1.2886717701852945e-62
220
-2.9558743728809875e-30
230
1
0
CIRCLE
5
105
100
AcDbEntity
8
0
100
AcDbCircle
10
281.00002632524229
20
77.500032356598581
30
0
40
3.25
210
-1.2886717701852945e-62
220
-2.9558743728809875e-30
230
1
0
CIRCLE
5
106
100
AcDbEntity
8
0
100
AcDbCircle
10
251.00002632524229
20
77.500032356597984
30
0
40
3.25
210
-1.2886717701852945e-62
220
-2.9558743728809875e-30
230
1
0
CIRCLE
5
107
100
AcDbEntity
8
0
100
AcDbCircle
10
281.00002632524445
20
-32.499995231627928
30
0
40
3.25
210
-1.2886717701852945e-62
220
-2.9558743728809875e-30
230
1
0
CIRCLE
5
108
100
AcDbEntity
8
0
100
AcDbCircle
10
251.00002632524439
20
-32.499995231628532
30
0
40
3.2499999999999645
210
-1.2886717701852945e-62
220
-2.9558743728809875e-30
230
1
0
CIRCLE
5
109
100
AcDbEntity
8
0
100
AcDbCircle
10
131.00002632524442
20
-32.499995231630948
30
0
40
3.2499999999999822
210
-1.2886717701852945e-62
220
-2.9558743728809875e-30
230
1
0
LWPOLYLINE
5
110
100
AcDbEntity
8
0
100
AcDbPolyline
90
6
70
1
43
0.0
10
236.000026325242
20
90.500032356598879
10
116.00002632524411
20
-17.499995231631242
10
116.00002632524533
20
-77.499995231631246
10
266.0000263252453
20
-77.499995231628233
10
296.00002632524473
20
-47.499981437514371
10
296.000026325242
20
90.500032356598879
0
CIRCLE
5
111
100
AcDbEntity
8
0
100
AcDbCircle
10
281.00002632524445
20
-2.4999952316279295
30
0
40
3.2499999999999645
210
2.8385334599458885e-45
220
3.7260457480325803e-79
230
1
0
CIRCLE
5
112
100
AcDbEntity
8
0
100
AcDbCircle
10
251.00002632524439
20
-2.4999952316285379
30
0
40
3.25
210
2.8385334599458885e-45
220
3.7260457480325803e-79
230
1
0
CIRCLE
5
113
100
AcDbEntity
8
0
100
AcDbCircle
10
131.00002632524502
20
-62.499995231630948
30
0
40
3.2499999999999822
210
2.8385334599458885e-45
220
3.7260457480325803e-79
230
1
0
CIRCLE
5
114
100
AcDbEntity
8
0
100
AcDbCircle
10
251.00002632524505
20
-62.499995231628532
30
0
40
3.25
210
2.8385334599458885e-45
220
3.7260457480325803e-79
230
1
0
CIRCLE
5
115
100
AcDbEntity
8
0
100
AcDbCircle
10
281.00002632524229
20
77.500032356598581
30
0
40
3.25
210
2.8385334599458885e-45
220
3.7260457480325803e-79
230
1
0
CIRCLE
5
116
100
AcDbEntity
8
0
100
AcDbCircle
10
251.00002632524229
20
77.500032356597984
30
0
40
3.25
210
2.8385334599458885e-45
220
3.7260457480325803e-79
230
1
0
CIRCLE
5
117
100
AcDbEntity
8
0
100
AcDbCircle
10
281.00002632524445
20
-32.499995231627928
30
0
40
3.25
210
2.8385334599458885e-45
220
3.7260457480325803e-79
230
1
0
CIRCLE
5
118
100
AcDbEntity
8
0
100
AcDbCircle
10
251.00002632524439
20
-32.499995231628532
30
0
40
3.2499999999999645
210
2.8385334599458885e-45
220
3.7260457480325803e-79
230
1
0
CIRCLE
5
119
100
AcDbEntity
8
0
100
AcDbCircle
10
131.00002632524442
20
-32.499995231630948
30
0
40
3.2499999999999822
210
2.8385334599458885e-45
220
3.7260457480325803e-79
230
1
0
ENDSEC
0
SECTION
2
OBJECTS
0
DICTIONARY
5
C
100
AcDbDictionary
3
ACAD_GROUP
350
D
3
ACAD_MLINESTYLE
350
17
0
DICTIONARY
5
D
100
AcDbDictionary
0
DICTIONARY
5
1A
330
C
100
AcDbDictionary
0
DICTIONARY
5
17
100
AcDbDictionary
0
ENDSEC
0
EOF
