0
SECTION
2
HEADER
9
$INSUNITS
70
4
9
$ACADVER
1
AC1014
9
$HANDSEED
5
FFFF
0
ENDSEC
0
SECTION
2
TABLES
0
TABLE
2
VPORT
5
8
100
AcDbSymbolTable
0
ENDTAB
0
TABLE
2
LTYPE
5
5
100
AcDbSymbolTable
0
LTYPE
5
14
100
AcDbSymbolTableRecord
100
AcDbLinetypeTableRecord
2
BYBLOCK
70
0
0
LTYPE
5
15
100
AcDbSymbolTableRecord
100
AcDbLinetypeTableRecord
2
BYLAYER
70
0
0
LTYPE
5
16
100
AcDbSymbolTableRecord
100
AcDbLinetypeTableRecord
2
DASHED
70
0
3
Dashed __ __ __ __ __ __ __ __ __ __ __ __ __ _
72
65
73
2
40
0.75
49
0.5
74
0
49
-0.25
74
0
0
ENDTAB
0
TABLE
2
LAYER
5
2
100
AcDbSymbolTable
70
2
0
LAYER
5
50
100
AcDbSymbolTableRecord
100
AcDbLayerTableRecord
2
0
70
0
62
7
6
CONTINUOUS
0
ENDTAB
0
TABLE
2
STYLE
5
3
100
AcDbSymbolTable
70
1
0
STYLE
5
11
100
AcDbSymbolTableRecord
100
AcDbTextStyleTableRecord
2
STANDARD
70
0
0
ENDTAB
0
TABLE
2
VIEW
5
6
100
AcDbSymbolTable
70
0
0
ENDTAB
0
TABLE
2
UCS
5
7
100
AcDbSymbolTable
70
0
0
ENDTAB
0
TABLE
2
APPID
5
9
100
AcDbSymbolTable
70
2
0
APPID
5
12
100
AcDbSymbolTableRecord
100
AcDbRegAppTableRecord
2
ACAD
70
0
0
ENDTAB
0
TABLE
2
DIMSTYLE
5
A
100
AcDbSymbolTable
70
1
0
ENDTAB
0
TABLE
2
BLOCK_RECORD
5
1
100
AcDbSymbolTable
70
1
0
BLOCK_RECORD
5
1F
100
AcDbSymbolTableRecord
100
AcDbBlockTableRecord
2
*MODEL_SPACE
0
BLOCK_RECORD
5
1B
100
AcDbSymbolTableRecord
100
AcDbBlockTableRecord
2
*PAPER_SPACE
0
ENDTAB
0
ENDSEC
0
SECTION
2
BLOCKS
0
BLOCK
5
20
100
AcDbEntity
100
AcDbBlockBegin
2
*MODEL_SPACE
0
ENDBLK
5
21
100
AcDbEntity
100
AcDbBlockEnd
0
BLOCK
5
1C
100
AcDbEntity
100
AcDbBlockBegin
2
*PAPER_SPACE
0
ENDBLK
5
1D
100
AcDbEntity
100
AcDbBlockEnd
0
ENDSEC
0
SECTION
2
ENTITIES
0
LWPOLYLINE
5
100
100
AcDbEntity
8
0
100
AcDbPolyline
90
8
70
1
43
0.0
10
366.24999999999807
20
31.99999999999995
10
366.24999999999801
20
-18.000000268220916
42
-0.41421353820077256
10
362.99999999999807
20
-21.250000000000089
10
313.00000466406345
20
-21.249999999996916
42
-0.41421156448095325
10
309.75000000010806
20
-18.000026833081066
10
309.7499999999975
20
31.999999999992859
42
-0.41421356237371776
10
312.99999999999733
20
35.249999999999943
10
363.00000540912151
20
35.249999999995438
42
-0.41421307489761244
0
LWPOLYLINE
5
101
100
AcDbEntity
8
0
100
AcDbPolyline
90
4
70
1
43
0.0
10
259.50000321864889
20
58.499879205448615
10
259.50000321864894
20
-360.50012079455155
10
418.500003218649
20
-360.50012079455155
10
418.500003218649
20
58.499879205448615
0
CIRCLE
5
102
100
AcDbEntity
8
0
100
AcDbCircle
10
-409.00000321864894
20
-351.00012079455166
30
-8.8817841970011829e-15
40
2.7499999999999858
210
-6.3583476972229049e-52
220
-1.97215226305253e-31
230
-1
0
CIRCLE
5
103
100
AcDbEntity
8
0
100
AcDbCircle
10
-408.500003218649
20
48.999981695145721
30
-7.5406347832540632e-12
40
2.7499999999999858
210
5.7934212021187311e-47
220
-1.97215226305253e-31
230
-1
0
CIRCLE
5
104
100
AcDbEntity
8
0
100
AcDbCircle
10
-269.00000321865002
20
-330.50012079455189
30
2.7533528151969115e-15
40
2.7499999999999645
210
-8.8817841970012491e-17
220
-1.97215226305253e-31
230
-1
0
CIRCLE
5
105
100
AcDbEntity
8
0
100
AcDbCircle
10
-388.50000321865002
20
-351.00012079455183
30
9.7699626167013839e-14
40
2.7499999999999645
210
-1.3735651629579546e-49
220
-1.97215226305253e-31
230
-1
0
CIRCLE
5
106
100
AcDbEntity
8
0
100
AcDbCircle
10
-409.00000321865002
20
28.499879205448273
30
-5.6206101271748553e-30
40
2.75
210
-8.6039433862024596e-50
220
-1.97215226305253e-31
230
-1
0
CIRCLE
5
107
100
AcDbEntity
8
0
100
AcDbCircle
10
-289.50000321865002
20
48.999879205448252
30
9.8143712518128323e-15
40
2.75
210
-8.8817841970012516e-17
220
-1.97215226305253e-31
230
-1
0
CIRCLE
5
108
100
AcDbEntity
8
0
100
AcDbCircle
10
-409.00000321865002
20
-91.500120794551776
30
1.8045217029455513e-29
40
2.7499999999999289
210
-6.8933739717434311e-50
220
-1.97215226305253e-31
230
-1
0
CIRCLE
5
109
100
AcDbEntity
8
0
100
AcDbCircle
10
-269.00000321865002
20
-210.50012079455175
30
1.1635137012198137e-14
40
2.75
210
-8.8817841970012516e-17
220
-1.97215226305253e-31
230
-1
0
CIRCLE
5
110
100
AcDbEntity
8
0
100
AcDbCircle
10
-409.00000321865002
20
-330.50012079455189
30
2.6645352591003823e-14
40
2.7499999999999289
210
-1.3735651629579544e-49
220
-1.97215226305253e-31
230
-1
0
CIRCLE
5
111
100
AcDbEntity
8
0
100
AcDbCircle
10
-269.00000321864997
20
28.499879205448266
30
-2.389199977580691e-14
40
2.7499999999999645
210
-8.8817841970012491e-17
220
-1.97215226305253e-31
230
-1
0
CIRCLE
5
112
100
AcDbEntity
8
0
100
AcDbCircle
10
-388.50000321865002
20
48.999879205448266
30
-3.5527136788005016e-14
40
2.7500000000000355
210
-8.6039433862024596e-50
220
-1.97215226305253e-31
230
-1
0
CIRCLE
5
113
100
AcDbEntity
8
0
100
AcDbCircle
10
-409.00000321865002
20
-210.50012079455175
30
4.1513828959780611e-29
40
2.75
210
-6.893373971743432e-50
220
-1.97215226305253e-31
230
-1
0
CIRCLE
5
114
100
AcDbEntity
8
0
100
AcDbCircle
10
-289.50000321865008
20
-351.00012079455183
30
9.3258705481165016e-16
40
2.75
210
-8.8817841970012516e-17
220
-1.97215226305253e-31
230
-1
0
CIRCLE
5
115
100
AcDbEntity
8
0
100
AcDbCircle
10
-269.00000321864997
20
-91.500120794551776
30
-5.9419136563811894e-14
40
2.7499999999999645
210
-8.8817841970012491e-17
220
-1.97215226305253e-31
230
-1
0
LWPOLYLINE
5
116
100
AcDbEntity
8
0
100
AcDbPolyline
90
8
70
1
43
0.0
10
366.24999999999807
20
31.99999999999995
10
366.24999999999795
20
-18.000000268220919
42
-0.41421353820077539
10
362.99999999999807
20
-21.250000000000092
10
313.00000466406345
20
-21.249999999996938
42
-0.41421156448095481
10
309.75000000010806
20
-18.000026833081066
10
309.74999999999744
20
31.999999999992866
42
-0.4142135623737222
10
312.99999999999733
20
35.249999999999943
10
363.00000540912151
20
35.249999999995453
42
-0.41421307489760079
0
CIRCLE
5
117
100
AcDbEntity
8
0
100
AcDbCircle
10
409.00000321864894
20
-351.00012079455166
30
8.8817841970012523e-15
40
2.7499999999999867
210
-3.8658679169025114e-18
220
1.155025115586941e-17
230
1
0
CIRCLE
5
118
100
AcDbEntity
8
0
100
AcDbCircle
10
408.500003218649
20
48.999981695145721
30
0
40
2.7499999999999867
210
-3.8658679169025114e-18
220
1.155025115586941e-17
230
1
0
CIRCLE
5
119
100
AcDbEntity
8
0
100
AcDbCircle
10
269.00000321865002
20
-330.50012079455189
30
8.8817841970012523e-15
40
2.7499999999999658
210
-3.8658679169025114e-18
220
1.155025115586941e-17
230
1
0
CIRCLE
5
120
100
AcDbEntity
8
0
100
AcDbCircle
10
388.50000321865002
20
-351.00012079455183
30
8.8817841970012523e-15
40
2.7499999999999658
210
-3.8658679169025114e-18
220
1.155025115586941e-17
230
1
0
CIRCLE
5
121
100
AcDbEntity
8
0
100
AcDbCircle
10
409.00000321865002
20
28.499879205448273
30
0
40
2.7500000000000013
210
-3.8658679169025114e-18
220
1.155025115586941e-17
230
1
0
CIRCLE
5
122
100
AcDbEntity
8
0
100
AcDbCircle
10
289.50000321865002
20
48.999879205448252
30
0
40
2.7500000000000013
210
-3.8658679169025114e-18
220
1.155025115586941e-17
230
1
0
CIRCLE
5
123
100
AcDbEntity
8
0
100
AcDbCircle
10
409.00000321865002
20
-91.500120794551776
30
0
40
2.7499999999999303
210
-3.8658679169025114e-18
220
1.155025115586941e-17
230
1
0
CIRCLE
5
124
100
AcDbEntity
8
0
100
AcDbCircle
10
269.00000321865002
20
-210.50012079455175
30
0
40
2.7500000000000013
210
-3.8658679169025114e-18
220
1.155025115586941e-17
230
1
0
CIRCLE
5
125
100
AcDbEntity
8
0
100
AcDbCircle
10
409.00000321865002
20
-330.50012079455189
30
8.8817841970012523e-15
40
2.7499999999999303
210
-3.8658679169025114e-18
220
1.155025115586941e-17
230
1
0
CIRCLE
5
126
100
AcDbEntity
8
0
100
AcDbCircle
10
269.00000321864997
20
28.499879205448266
30
0
40
2.7499999999999658
210
-3.8658679169025114e-18
220
1.155025115586941e-17
230
1
0
CIRCLE
5
127
100
AcDbEntity
8
0
100
AcDbCircle
10
388.50000321865002
20
48.999879205448266
30
0
40
2.7500000000000369
210
-3.8658679169025114e-18
220
1.155025115586941e-17
230
1
0
CIRCLE
5
128
100
AcDbEntity
8
0
100
AcDbCircle
10
409.00000321865002
20
-210.50012079455175
30
0
40
2.7500000000000013
210
-3.8658679169025114e-18
220
1.155025115586941e-17
230
1
0
CIRCLE
5
129
100
AcDbEntity
8
0
100
AcDbCircle
10
289.50000321865008
20
-351.00012079455183
30
8.8817841970012523e-15
40
2.7500000000000013
210
-3.8658679169025114e-18
220
1.155025115586941e-17
230
1
0
CIRCLE
5
130
100
AcDbEntity
8
0
100
AcDbCircle
10
269.00000321864997
20
-91.500120794551776
30
0
40
2.7499999999999658
210
-3.8658679169025114e-18
220
1.155025115586941e-17
230
1
0
LWPOLYLINE
5
131
100
AcDbEntity
8
0
100
AcDbPolyline
90
4
70
1
43
0.0
10
259.50000321864889
20
58.499879205448615
10
259.50000321864894
20
-360.50012079455155
10
418.500003218649
20
-360.50012079455155
10
418.500003218649
20
58.499879205448622
0
ENDSEC
0
SECTION
2
OBJECTS
0
DICTIONARY
5
C
100
AcDbDictionary
3
ACAD_GROUP
350
D
3
ACAD_MLINESTYLE
350
17
0
DICTIONARY
5
D
100
AcDbDictionary
0
DICTIONARY
5
1A
330
C
100
AcDbDictionary
0
DICTIONARY
5
17
100
AcDbDictionary
0
ENDSEC
0
EOF
