0
SECTION
2
HEADER
9
$INSUNITS
70
4
9
$ACADVER
1
AC1014
9
$HANDSEED
5
FFFF
0
ENDSEC
0
SECTION
2
TABLES
0
TABLE
2
VPORT
5
8
100
AcDbSymbolTable
0
ENDTAB
0
TABLE
2
LTYPE
5
5
100
AcDbSymbolTable
0
LTYPE
5
14
100
AcDbSymbolTableRecord
100
AcDbLinetypeTableRecord
2
BYBLOCK
70
0
0
LTYPE
5
15
100
AcDbSymbolTableRecord
100
AcDbLinetypeTableRecord
2
BYLAYER
70
0
0
LTYPE
5
16
100
AcDbSymbolTableRecord
100
AcDbLinetypeTableRecord
2
DASHED
70
0
3
Dashed __ __ __ __ __ __ __ __ __ __ __ __ __ _
72
65
73
2
40
0.75
49
0.5
74
0
49
-0.25
74
0
0
ENDTAB
0
TABLE
2
LAYER
5
2
100
AcDbSymbolTable
70
2
0
LAYER
5
50
100
AcDbSymbolTableRecord
100
AcDbLayerTableRecord
2
0
70
0
62
7
6
CONTINUOUS
0
ENDTAB
0
TABLE
2
STYLE
5
3
100
AcDbSymbolTable
70
1
0
STYLE
5
11
100
AcDbSymbolTableRecord
100
AcDbTextStyleTableRecord
2
STANDARD
70
0
0
ENDTAB
0
TABLE
2
VIEW
5
6
100
AcDbSymbolTable
70
0
0
ENDTAB
0
TABLE
2
UCS
5
7
100
AcDbSymbolTable
70
0
0
ENDTAB
0
TABLE
2
APPID
5
9
100
AcDbSymbolTable
70
2
0
APPID
5
12
100
AcDbSymbolTableRecord
100
AcDbRegAppTableRecord
2
ACAD
70
0
0
ENDTAB
0
TABLE
2
DIMSTYLE
5
A
100
AcDbSymbolTable
70
1
0
ENDTAB
0
TABLE
2
BLOCK_RECORD
5
1
100
AcDbSymbolTable
70
1
0
BLOCK_RECORD
5
1F
100
AcDbSymbolTableRecord
100
AcDbBlockTableRecord
2
*MODEL_SPACE
0
BLOCK_RECORD
5
1B
100
AcDbSymbolTableRecord
100
AcDbBlockTableRecord
2
*PAPER_SPACE
0
ENDTAB
0
ENDSEC
0
SECTION
2
BLOCKS
0
BLOCK
5
20
100
AcDbEntity
100
AcDbBlockBegin
2
*MODEL_SPACE
0
ENDBLK
5
21
100
AcDbEntity
100
AcDbBlockEnd
0
BLOCK
5
1C
100
AcDbEntity
100
AcDbBlockBegin
2
*PAPER_SPACE
0
ENDBLK
5
1D
100
AcDbEntity
100
AcDbBlockEnd
0
ENDSEC
0
SECTION
2
ENTITIES
0
LWPOLYLINE
5
100
100
AcDbEntity
8
0
100
AcDbPolyline
90
12
70
1
43
0.0
10
-336.9999999999971
20
174.39199999999974
10
-336.99999999999693
20
145.89199999999971
42
-1.9643007599140128
10
-340.0923292192129
20
141.64200000000821
10
-383.90767078078136
20
141.64200000000815
42
-1.9643007599139977
10
-386.99999999999733
20
145.89199999999974
10
-386.99999999999761
20
174.39199999999977
42
-0.41421356237309509
10
-390.24999999999761
20
177.64199999999983
10
-390.24999999999761
20
227.64199999999965
42
-0.41421356237309509
10
-386.99999999999761
20
230.89199999999971
10
-337.00000502167825
20
230.89199999999596
42
-0.41421401493206073
10
-333.74999999999687
20
227.64199999999977
10
-333.7499999999971
20
177.64199999999991
42
-0.41421356237310786
0
LWPOLYLINE
5
101
100
AcDbEntity
8
0
100
AcDbPolyline
90
8
70
1
43
0.0
10
-376.70775133095958
20
-3.9000000000003587
10
-300.89282547000084
20
-3.9000000000046064
42
-1.6344049900834317
10
-296.80049625079329
20
-7.9923292192121176
10
-296.80049625079323
20
-38.807784634967156
42
-1.6344049900834237
10
-300.89282547000084
20
-42.900113854174677
10
-376.70775133097277
20
-42.900113854174705
42
-1.6344049900834265
10
-380.80008055018033
20
-38.807784634967142
10
-380.80008055018453
20
-7.9923292192251445
42
-1.6344049900833892
0
LWPOLYLINE
5
102
100
AcDbEntity
8
0
100
AcDbPolyline
90
4
70
1
43
0.0
10
-259.30000321864907
20
-72.400277587556161
10
-259.30000321864907
20
256.59972241244361
10
-418.30000321864895
20
256.59972241244355
10
-418.30000321864895
20
-72.400277587556189
0
CIRCLE
5
103
100
AcDbEntity
8
0
100
AcDbCircle
10
-378.29965101848586
20
47.60010610451544
30
2.1316282072803006e-13
40
2.7499999999999858
210
-5.5511151231257815e-17
220
-2.2109675761568739e-31
230
1
0
CIRCLE
5
104
100
AcDbEntity
8
0
100
AcDbCircle
10
-299.29965101848614
20
47.600106104518566
30
2.1316282072803006e-13
40
2.7499999999999858
210
-5.5511151231257815e-17
220
-2.2109675761568739e-31
230
1
0
CIRCLE
5
105
100
AcDbEntity
8
0
100
AcDbCircle
10
-388.50000321865002
20
-62.90010201282152
30
1.7763568394002505e-12
40
2.7500000000000355
210
3.5471625636773745e-14
220
-2.2109675761568761e-31
230
1
0
CIRCLE
5
106
100
AcDbEntity
8
0
100
AcDbCircle
10
-388.50000321865002
20
247.099897987178
30
1.7763568394002505e-12
40
2.7499999999999645
210
3.5471625636773745e-14
220
-2.2109675761568761e-31
230
1
0
CIRCLE
5
107
100
AcDbEntity
8
0
100
AcDbCircle
10
-269.00000321865025
20
226.599897987178
30
-2.4868995751603507e-12
40
2.7500000000000355
210
3.5471625636773745e-14
220
-2.2109675761568761e-31
230
1
0
CIRCLE
5
108
100
AcDbEntity
8
0
100
AcDbCircle
10
-409.00000321865002
20
-42.400102012821534
30
2.4868995751603507e-12
40
2.75
210
3.5471625636773745e-14
220
-2.2109675761568761e-31
230
1
0
CIRCLE
5
109
100
AcDbEntity
8
0
100
AcDbCircle
10
-269.00000321865025
20
92.099897987178252
30
-2.4868995751603507e-12
40
2.7500000000000355
210
3.5471625636773745e-14
220
-2.2109675761568761e-31
230
1
0
CIRCLE
5
110
100
AcDbEntity
8
0
100
AcDbCircle
10
-269.00000321865025
20
-42.400102012821534
30
-2.4868995751603507e-12
40
2.7500000000000355
210
3.5471625636773745e-14
220
-2.2109675761568761e-31
230
1
0
CIRCLE
5
111
100
AcDbEntity
8
0
100
AcDbCircle
10
-409.00000321865002
20
92.099897987178252
30
2.4868995751603507e-12
40
2.7500000000000711
210
3.5471625636773739e-14
220
-2.2109675761568761e-31
230
1
0
CIRCLE
5
112
100
AcDbEntity
8
0
100
AcDbCircle
10
-289.50000321865025
20
247.099897987178
30
-1.7053025658242404e-12
40
2.75
210
3.5471625636773745e-14
220
-2.2109675761568761e-31
230
1
0
CIRCLE
5
113
100
AcDbEntity
8
0
100
AcDbCircle
10
-409.00000321865002
20
226.599897987178
30
2.4868995751603507e-12
40
2.75
210
3.5471625636773745e-14
220
-2.2109675761568761e-31
230
1
0
CIRCLE
5
114
100
AcDbEntity
8
0
100
AcDbCircle
10
-289.50000321865025
20
-62.90010201282152
30
-1.7053025658242404e-12
40
2.75
210
3.5471625636773745e-14
220
-2.2109675761568761e-31
230
1
0
CIRCLE
5
115
100
AcDbEntity
8
0
100
AcDbCircle
10
-378.29965101848586
20
47.60010610451544
30
0
40
2.7499999999999849
210
7.153732362500716e-53
220
2.5605933151198188e-19
230
1
0
CIRCLE
5
116
100
AcDbEntity
8
0
100
AcDbCircle
10
-299.29965101848614
20
47.600106104518566
30
0
40
2.7499999999999849
210
7.153732362500716e-53
220
2.5605933151198188e-19
230
1
0
LWPOLYLINE
5
117
100
AcDbEntity
8
0
100
AcDbPolyline
90
12
70
1
43
0.0
10
-336.9999999999971
20
174.39199999999974
10
-336.99999999999693
20
145.89199999999971
42
-1.9643007599140194
10
-340.0923292192129
20
141.64200000000821
10
-383.90767078078125
20
141.64200000000815
42
-1.9643007599140043
10
-386.99999999999733
20
145.89199999999974
10
-386.99999999999756
20
174.39199999999983
42
-0.41421356237307905
10
-390.24999999999761
20
177.64199999999983
10
-390.24999999999761
20
227.64199999999965
42
-0.41421356237307905
10
-386.99999999999761
20
230.89199999999971
10
-337.00000502167813
20
230.89199999999602
42
-0.41421401493205745
10
-333.74999999999687
20
227.64199999999977
10
-333.74999999999716
20
177.64199999999988
42
-0.41421356237310786
0
CIRCLE
5
118
100
AcDbEntity
8
0
100
AcDbCircle
10
-388.50000321865002
20
-62.90010201282152
30
0
40
2.7500000000000346
210
1.9714386186469022e-53
220
2.5605933151198188e-19
230
1
0
CIRCLE
5
119
100
AcDbEntity
8
0
100
AcDbCircle
10
-388.50000321865002
20
247.099897987178
30
0
40
2.7499999999999636
210
6.5034095074514999e-53
220
2.5605933151198188e-19
230
1
0
CIRCLE
5
120
100
AcDbEntity
8
0
100
AcDbCircle
10
-269.00000321865025
20
226.599897987178
30
0
40
2.7500000000000346
210
1.9714386186469022e-53
220
2.5605933151198188e-19
230
1
0
CIRCLE
5
121
100
AcDbEntity
8
0
100
AcDbCircle
10
-409.00000321865002
20
-42.400102012821534
30
0
40
2.7499999999999991
210
1.9714386186469022e-53
220
2.5605933151198188e-19
230
1
0
CIRCLE
5
122
100
AcDbEntity
8
0
100
AcDbCircle
10
-269.00000321865025
20
92.099897987178252
30
0
40
2.7500000000000346
210
1.9714386186469022e-53
220
2.5605933151198188e-19
230
1
0
CIRCLE
5
123
100
AcDbEntity
8
0
100
AcDbCircle
10
-269.00000321865025
20
-42.400102012821534
30
0
40
2.7500000000000346
210
1.9714386186469022e-53
220
2.5605933151198188e-19
230
1
0
CIRCLE
5
124
100
AcDbEntity
8
0
100
AcDbCircle
10
-409.00000321865002
20
92.099897987178252
30
0
40
2.7500000000000702
210
4.9927525445141014e-53
220
2.5605933151198188e-19
230
1
0
CIRCLE
5
125
100
AcDbEntity
8
0
100
AcDbCircle
10
-289.50000321865025
20
247.099897987178
30
0
40
2.7499999999999991
210
1.9714386186469022e-53
220
2.5605933151198188e-19
230
1
0
CIRCLE
5
126
100
AcDbEntity
8
0
100
AcDbCircle
10
-409.00000321865002
20
226.599897987178
30
0
40
2.7499999999999991
210
1.9714386186469022e-53
220
2.5605933151198188e-19
230
1
0
CIRCLE
5
127
100
AcDbEntity
8
0
100
AcDbCircle
10
-289.50000321865025
20
-62.90010201282152
30
0
40
2.7499999999999991
210
1.9714386186469022e-53
220
2.5605933151198188e-19
230
1
0
LWPOLYLINE
5
128
100
AcDbEntity
8
0
100
AcDbPolyline
90
8
70
1
43
0.0
10
-376.70775133095958
20
-3.9000000000003587
10
-300.89282547000079
20
-3.9000000000046109
42
-1.6344049900834179
10
-296.80049625079329
20
-7.992329219212114
10
-296.80049625079329
20
-38.807784634967149
42
-1.6344049900834203
10
-300.89282547000084
20
-42.900113854174677
10
-376.70775133097277
20
-42.900113854174691
42
-1.6344049900834186
10
-380.80008055018033
20
-38.807784634967135
10
-380.80008055018459
20
-7.9923292192251623
42
-1.6344049900833844
0
LWPOLYLINE
5
129
100
AcDbEntity
8
0
100
AcDbPolyline
90
4
70
1
43
0.0
10
-259.30000321864907
20
-72.400277587556161
10
-259.30000321864907
20
256.59972241244361
10
-418.30000321864895
20
256.59972241244355
10
-418.30000321864895
20
-72.400277587556189
0
ENDSEC
0
SECTION
2
OBJECTS
0
DICTIONARY
5
C
100
AcDbDictionary
3
ACAD_GROUP
350
D
3
ACAD_MLINESTYLE
350
17
0
DICTIONARY
5
D
100
AcDbDictionary
0
DICTIONARY
5
1A
330
C
100
AcDbDictionary
0
DICTIONARY
5
17
100
AcDbDictionary
0
ENDSEC
0
EOF
