0
SECTION
2
HEADER
9
$INSUNITS
70
4
9
$ACADVER
1
AC1014
9
$HANDSEED
5
FFFF
0
ENDSEC
0
SECTION
2
TABLES
0
TABLE
2
VPORT
5
8
100
AcDbSymbolTable
0
ENDTAB
0
TABLE
2
LTYPE
5
5
100
AcDbSymbolTable
0
LTYPE
5
14
100
AcDbSymbolTableRecord
100
AcDbLinetypeTableRecord
2
BYBLOCK
70
0
0
LTYPE
5
15
100
AcDbSymbolTableRecord
100
AcDbLinetypeTableRecord
2
BYLAYER
70
0
0
LTYPE
5
16
100
AcDbSymbolTableRecord
100
AcDbLinetypeTableRecord
2
DASHED
70
0
3
Dashed __ __ __ __ __ __ __ __ __ __ __ __ __ _
72
65
73
2
40
0.75
49
0.5
74
0
49
-0.25
74
0
0
ENDTAB
0
TABLE
2
LAYER
5
2
100
AcDbSymbolTable
70
2
0
LAYER
5
50
100
AcDbSymbolTableRecord
100
AcDbLayerTableRecord
2
0
70
0
62
7
6
CONTINUOUS
0
ENDTAB
0
TABLE
2
STYLE
5
3
100
AcDbSymbolTable
70
1
0
STYLE
5
11
100
AcDbSymbolTableRecord
100
AcDbTextStyleTableRecord
2
STANDARD
70
0
0
ENDTAB
0
TABLE
2
VIEW
5
6
100
AcDbSymbolTable
70
0
0
ENDTAB
0
TABLE
2
UCS
5
7
100
AcDbSymbolTable
70
0
0
ENDTAB
0
TABLE
2
APPID
5
9
100
AcDbSymbolTable
70
2
0
APPID
5
12
100
AcDbSymbolTableRecord
100
AcDbRegAppTableRecord
2
ACAD
70
0
0
ENDTAB
0
TABLE
2
DIMSTYLE
5
A
100
AcDbSymbolTable
70
1
0
ENDTAB
0
TABLE
2
BLOCK_RECORD
5
1
100
AcDbSymbolTable
70
1
0
BLOCK_RECORD
5
1F
100
AcDbSymbolTableRecord
100
AcDbBlockTableRecord
2
*MODEL_SPACE
0
BLOCK_RECORD
5
1B
100
AcDbSymbolTableRecord
100
AcDbBlockTableRecord
2
*PAPER_SPACE
0
ENDTAB
0
ENDSEC
0
SECTION
2
BLOCKS
0
BLOCK
5
20
100
AcDbEntity
100
AcDbBlockBegin
2
*MODEL_SPACE
0
ENDBLK
5
21
100
AcDbEntity
100
AcDbBlockEnd
0
BLOCK
5
1C
100
AcDbEntity
100
AcDbBlockBegin
2
*PAPER_SPACE
0
ENDBLK
5
1D
100
AcDbEntity
100
AcDbBlockEnd
0
ENDSEC
0
SECTION
2
ENTITIES
0
LWPOLYLINE
5
100
100
AcDbEntity
8
0
100
AcDbPolyline
90
4
70
1
43
0.0
10
259.50000321866548
20
256.59989798717811
10
259.50000321866548
20
-72.400102012821534
10
418.50000321866548
20
-72.400102012821534
10
418.50000321866548
20
256.59989798717811
0
CIRCLE
5
101
100
AcDbEntity
8
0
100
AcDbCircle
10
409.00000321866514
20
112.09989798717817
30
-1.7319479184152442e-12
40
2.7499999999999858
210
2.368475785867001e-14
220
2.1895288505075205e-46
230
1
0
CIRCLE
5
102
100
AcDbEntity
8
0
100
AcDbCircle
10
386.29550321866134
20
78.551436636685409
30
-1.2079226507921703e-12
40
8.9999999999999858
210
2.368475785867001e-14
220
2.1895288505075205e-46
230
1
0
CIRCLE
5
103
100
AcDbEntity
8
0
100
AcDbCircle
10
388.50000321866531
20
-62.900102012821492
30
-1.7674750552032492e-12
40
2.7500000000000355
210
3.5527136788004997e-14
220
2.1895288505075201e-46
230
1
0
CIRCLE
5
104
100
AcDbEntity
8
0
100
AcDbCircle
10
388.50000321866531
20
247.09989798717797
30
-1.758593271006248e-12
40
2.7499999999999645
210
3.5527136788004997e-14
220
2.1895288505075208e-46
230
1
0
CIRCLE
5
105
100
AcDbEntity
8
0
100
AcDbCircle
10
269.00000321866537
20
226.59989798717794
30
2.4868995751603507e-12
40
2.7500000000000355
210
3.5527136788004997e-14
220
2.1895288505075201e-46
230
1
0
CIRCLE
5
106
100
AcDbEntity
8
0
100
AcDbCircle
10
409.00000321866526
20
-42.400102012821499
30
-2.4957813593573519e-12
40
2.75
210
3.5527136788004997e-14
220
2.1895288505075201e-46
230
1
0
CIRCLE
5
107
100
AcDbEntity
8
0
100
AcDbCircle
10
269.00000321866537
20
92.099897987178252
30
2.4868995751603507e-12
40
2.7500000000000355
210
3.5527136788004997e-14
220
2.1895288505075201e-46
230
1
0
CIRCLE
5
108
100
AcDbEntity
8
0
100
AcDbCircle
10
269.00000321866537
20
-42.400102012821499
30
2.4780177909633494e-12
40
2.7500000000000355
210
3.5527136788004997e-14
220
2.1895288505075201e-46
230
1
0
CIRCLE
5
109
100
AcDbEntity
8
0
100
AcDbCircle
10
409.00000321866526
20
72.099897987178252
30
-2.4957813593573519e-12
40
2.7500000000000711
210
3.5527136788004997e-14
220
2.1895288505075208e-46
230
1
0
CIRCLE
5
110
100
AcDbEntity
8
0
100
AcDbCircle
10
289.50000321866537
20
247.09989798717797
30
1.758593271006248e-12
40
2.75
210
3.5527136788004997e-14
220
2.1895288505075201e-46
230
1
0
CIRCLE
5
111
100
AcDbEntity
8
0
100
AcDbCircle
10
409.00000321866526
20
226.59989798717794
30
-2.4868995751603507e-12
40
2.75
210
3.5527136788004997e-14
220
2.1895288505075201e-46
230
1
0
CIRCLE
5
112
100
AcDbEntity
8
0
100
AcDbCircle
10
289.50000321866537
20
-62.900102012821492
30
1.7497114868092467e-12
40
2.75
210
3.5527136788004997e-14
220
2.1895288505075201e-46
230
1
0
CIRCLE
5
113
100
AcDbEntity
8
0
100
AcDbCircle
10
299.00000321866526
20
216.59989798717794
30
1.5987211554602254e-12
40
5
210
3.5527136788005009e-14
220
2.1895288505075205e-46
230
1
0
CIRCLE
5
114
100
AcDbEntity
8
0
100
AcDbCircle
10
339.00000321866526
20
216.59989798717794
30
-7.9936057773011271e-14
40
5
210
2.368475785867001e-14
220
2.1895288505075205e-46
230
1
0
CIRCLE
5
115
100
AcDbEntity
8
0
100
AcDbCircle
10
379.00000321866526
20
216.59989798717794
30
-1.1457501614131615e-12
40
5
210
2.368475785867001e-14
220
2.1895288505075205e-46
230
1
0
CIRCLE
5
116
100
AcDbEntity
8
0
100
AcDbCircle
10
409.00000321866514
20
112.09989798717817
30
8.8817841970012523e-15
40
2.749999999999984
210
-3.0814879110195787e-33
220
-5.5511151231257852e-17
230
1
0
CIRCLE
5
117
100
AcDbEntity
8
0
100
AcDbCircle
10
386.29550321866134
20
78.551436636685409
30
0
40
8.9999999999999805
210
-3.0814879110195787e-33
220
-5.5511151231257852e-17
230
1
0
CIRCLE
5
118
100
AcDbEntity
8
0
100
AcDbCircle
10
388.50000321866531
20
-62.900102012821492
30
0
40
2.7500000000000342
210
-3.0814879110195787e-33
220
-5.5511151231257852e-17
230
1
0
CIRCLE
5
119
100
AcDbEntity
8
0
100
AcDbCircle
10
388.50000321866531
20
247.09989798717797
30
8.8817841970012523e-15
40
2.7499999999999631
210
-3.0814879110195787e-33
220
-5.5511151231257852e-17
230
1
0
CIRCLE
5
120
100
AcDbEntity
8
0
100
AcDbCircle
10
269.00000321866537
20
226.59989798717794
30
8.8817841970012523e-15
40
2.7500000000000342
210
-3.0814879110195787e-33
220
-5.5511151231257852e-17
230
1
0
CIRCLE
5
121
100
AcDbEntity
8
0
100
AcDbCircle
10
409.00000321866526
20
-42.400102012821499
30
0
40
2.7499999999999987
210
-3.0814879110195787e-33
220
-5.5511151231257852e-17
230
1
0
CIRCLE
5
122
100
AcDbEntity
8
0
100
AcDbCircle
10
269.00000321866537
20
92.099897987178252
30
8.8817841970012523e-15
40
2.7500000000000342
210
-3.0814879110195787e-33
220
-5.5511151231257852e-17
230
1
0
CIRCLE
5
123
100
AcDbEntity
8
0
100
AcDbCircle
10
269.00000321866537
20
-42.400102012821499
30
0
40
2.7500000000000342
210
-3.0814879110195787e-33
220
-5.5511151231257852e-17
230
1
0
CIRCLE
5
124
100
AcDbEntity
8
0
100
AcDbCircle
10
409.00000321866526
20
72.099897987178252
30
0
40
2.7500000000000697
210
-3.0814879110195787e-33
220
-5.5511151231257852e-17
230
1
0
CIRCLE
5
125
100
AcDbEntity
8
0
100
AcDbCircle
10
289.50000321866537
20
247.09989798717797
30
8.8817841970012523e-15
40
2.7499999999999987
210
-3.0814879110195787e-33
220
-5.5511151231257852e-17
230
1
0
CIRCLE
5
126
100
AcDbEntity
8
0
100
AcDbCircle
10
409.00000321866526
20
226.59989798717794
30
8.8817841970012523e-15
40
2.7499999999999987
210
-3.0814879110195787e-33
220
-5.5511151231257852e-17
230
1
0
CIRCLE
5
127
100
AcDbEntity
8
0
100
AcDbCircle
10
289.50000321866537
20
-62.900102012821492
30
0
40
2.7499999999999987
210
-3.0814879110195787e-33
220
-5.5511151231257852e-17
230
1
0
CIRCLE
5
128
100
AcDbEntity
8
0
100
AcDbCircle
10
299.00000321866526
20
216.59989798717794
30
8.8817841970012523e-15
40
4.9999999999999964
210
-3.0814879110195787e-33
220
-5.5511151231257852e-17
230
1
0
CIRCLE
5
129
100
AcDbEntity
8
0
100
AcDbCircle
10
339.00000321866526
20
216.59989798717794
30
8.8817841970012523e-15
40
4.9999999999999964
210
-3.0814879110195787e-33
220
-5.5511151231257852e-17
230
1
0
CIRCLE
5
130
100
AcDbEntity
8
0
100
AcDbCircle
10
379.00000321866526
20
216.59989798717794
30
8.8817841970012523e-15
40
4.9999999999999964
210
-3.0814879110195787e-33
220
-5.5511151231257852e-17
230
1
0
LWPOLYLINE
5
131
100
AcDbEntity
8
0
100
AcDbPolyline
90
4
70
1
43
0.0
10
259.50000321866548
20
256.59989798717811
10
259.50000321866548
20
-72.400102012821577
10
418.50000321866548
20
-72.400102012821534
10
418.50000321866548
20
256.59989798717817
0
ENDSEC
0
SECTION
2
OBJECTS
0
DICTIONARY
5
C
100
AcDbDictionary
3
ACAD_GROUP
350
D
3
ACAD_MLINESTYLE
350
17
0
DICTIONARY
5
D
100
AcDbDictionary
0
DICTIONARY
5
1A
330
C
100
AcDbDictionary
0
DICTIONARY
5
17
100
AcDbDictionary
0
ENDSEC
0
EOF
