0
SECTION
2
HEADER
9
$INSUNITS
70
4
9
$ACADVER
1
AC1014
9
$HANDSEED
5
FFFF
0
ENDSEC
0
SECTION
2
TABLES
0
TABLE
2
VPORT
5
8
100
AcDbSymbolTable
0
ENDTAB
0
TABLE
2
LTYPE
5
5
100
AcDbSymbolTable
0
LTYPE
5
14
100
AcDbSymbolTableRecord
100
AcDbLinetypeTableRecord
2
BYBLOCK
70
0
0
LTYPE
5
15
100
AcDbSymbolTableRecord
100
AcDbLinetypeTableRecord
2
BYLAYER
70
0
0
LTYPE
5
16
100
AcDbSymbolTableRecord
100
AcDbLinetypeTableRecord
2
DASHED
70
0
3
Dashed __ __ __ __ __ __ __ __ __ __ __ __ __ _
72
65
73
2
40
0.75
49
0.5
74
0
49
-0.25
74
0
0
ENDTAB
0
TABLE
2
LAYER
5
2
100
AcDbSymbolTable
70
2
0
LAYER
5
50
100
AcDbSymbolTableRecord
100
AcDbLayerTableRecord
2
0
70
0
62
7
6
CONTINUOUS
0
ENDTAB
0
TABLE
2
STYLE
5
3
100
AcDbSymbolTable
70
1
0
STYLE
5
11
100
AcDbSymbolTableRecord
100
AcDbTextStyleTableRecord
2
STANDARD
70
0
0
ENDTAB
0
TABLE
2
VIEW
5
6
100
AcDbSymbolTable
70
0
0
ENDTAB
0
TABLE
2
UCS
5
7
100
AcDbSymbolTable
70
0
0
ENDTAB
0
TABLE
2
APPID
5
9
100
AcDbSymbolTable
70
2
0
APPID
5
12
100
AcDbSymbolTableRecord
100
AcDbRegAppTableRecord
2
ACAD
70
0
0
ENDTAB
0
TABLE
2
DIMSTYLE
5
A
100
AcDbSymbolTable
70
1
0
ENDTAB
0
TABLE
2
BLOCK_RECORD
5
1
100
AcDbSymbolTable
70
1
0
BLOCK_RECORD
5
1F
100
AcDbSymbolTableRecord
100
AcDbBlockTableRecord
2
*MODEL_SPACE
0
BLOCK_RECORD
5
1B
100
AcDbSymbolTableRecord
100
AcDbBlockTableRecord
2
*PAPER_SPACE
0
ENDTAB
0
ENDSEC
0
SECTION
2
BLOCKS
0
BLOCK
5
20
100
AcDbEntity
100
AcDbBlockBegin
2
*MODEL_SPACE
0
ENDBLK
5
21
100
AcDbEntity
100
AcDbBlockEnd
0
BLOCK
5
1C
100
AcDbEntity
100
AcDbBlockBegin
2
*PAPER_SPACE
0
ENDBLK
5
1D
100
AcDbEntity
100
AcDbBlockEnd
0
ENDSEC
0
SECTION
2
ENTITIES
0
LWPOLYLINE
5
100
100
AcDbEntity
8
0
100
AcDbPolyline
90
4
70
1
43
0.0
10
-98.999981695070545
20
277.09972241244895
10
-98.999981695070545
20
-76.900277587551003
10
401.00001830492943
20
-76.900277587551003
10
401.00001830492943
20
277.09972241244895
0
CIRCLE
5
101
100
AcDbEntity
8
0
100
AcDbCircle
10
351.00001830492943
20
-62.900277587551003
30
-7.531752999057062e-12
40
2.7500000000000568
210
4.7369515717339901e-14
220
5.5511151231218507e-17
230
1
0
CIRCLE
5
102
100
AcDbEntity
8
0
100
AcDbCircle
10
-48.999981695070538
20
-62.900277587551003
30
6.9277916736609768e-12
40
2.7500000000000036
210
3.5527136788004927e-14
220
5.5511151231218507e-17
230
1
0
CIRCLE
5
103
100
AcDbEntity
8
0
100
AcDbCircle
10
106.00001830492945
20
232.09972241244895
30
1.4210854715202004e-12
40
2.5
210
3.5527136788004927e-14
220
5.5511151231218507e-17
230
1
0
CIRCLE
5
104
100
AcDbEntity
8
0
100
AcDbCircle
10
151.00001830492948
20
-62.900277587551003
30
-1.7763568394002505e-13
40
2.7500000000000036
210
3.5527136788004927e-14
220
5.5511151231218507e-17
230
1
0
CIRCLE
5
105
100
AcDbEntity
8
0
100
AcDbCircle
10
-18.999981695070534
20
-62.900277587551003
30
6.3948846218409017e-12
40
2.7499999999999969
210
3.7007434154171801e-14
220
5.5511151231218507e-17
230
1
0
CIRCLE
5
106
100
AcDbEntity
8
0
100
AcDbCircle
10
321.00001830492943
20
-62.900277587551003
30
-6.2172489379008766e-12
40
2.7499999999999858
210
3.5527136788004934e-14
220
5.5511151231218507e-17
230
1
0
CIRCLE
5
107
100
AcDbEntity
8
0
100
AcDbCircle
10
133.99543771227906
20
23.099771648594682
30
4.2632564145606011e-13
40
2.2499999999999964
210
3.5527136788004927e-14
220
5.5511151231218507e-17
230
1
0
CIRCLE
5
108
100
AcDbEntity
8
0
100
AcDbCircle
10
351.000120794552
20
247.09972241244878
30
-7.531752999057062e-12
40
2.7499999999999858
210
4.7369515717339901e-14
220
5.5511151231218507e-17
230
1
0
CIRCLE
5
109
100
AcDbEntity
8
0
100
AcDbCircle
10
351.00457675192274
20
166.09954407200388
30
-7.2830630415410269e-12
40
2.7499999999999858
210
3.5527136788005136e-14
220
5.5511151231218507e-17
230
1
0
CIRCLE
5
110
100
AcDbEntity
8
0
100
AcDbCircle
10
251.00001401338403
20
146.1513166545831
30
-3.730349362740526e-12
40
2.7500000000000213
210
3.5527136788005136e-14
220
5.5511151231218507e-17
230
1
0
CIRCLE
5
111
100
AcDbEntity
8
0
100
AcDbCircle
10
351.00457675190853
20
18.099544072003798
30
-7.2830630415410269e-12
40
2.7499999999999858
210
3.5527136788005136e-14
220
5.5511151231218507e-17
230
1
0
CIRCLE
5
112
100
AcDbEntity
8
0
100
AcDbCircle
10
-48.999981695051048
20
166.09961221141413
30
6.9277916736609768e-12
40
2.7499999999999947
210
3.5527136788005136e-14
220
5.5511151231218507e-17
230
1
0
CIRCLE
5
113
100
AcDbEntity
8
0
100
AcDbCircle
10
25.995806077956022
20
184.10010610450729
30
5.2224891078367364e-12
40
2.7500000000000058
210
3.6359804056474003e-14
220
5.5511151231218507e-17
230
1
0
CIRCLE
5
114
100
AcDbEntity
8
0
100
AcDbCircle
10
305.99580607795536
20
184.1001061045074
30
-5.7198690228688065e-12
40
2.7500000000000213
210
3.5527136788005136e-14
220
5.5511151231218507e-17
230
1
0
CIRCLE
5
115
100
AcDbEntity
8
0
100
AcDbCircle
10
174.00001401338403
20
9.1513166545836349
30
-9.9475983006414026e-13
40
2.7499999999999858
210
3.5527136788005136e-14
220
5.5511151231218507e-17
230
1
0
CIRCLE
5
116
100
AcDbEntity
8
0
100
AcDbCircle
10
-48.99998169506182
20
18.099612211414243
30
6.9277916736609768e-12
40
2.7499999999999947
210
3.5527136788005136e-14
220
5.5511151231218507e-17
230
1
0
CIRCLE
5
117
100
AcDbEntity
8
0
100
AcDbCircle
10
88.995437712279042
20
1.0997716485946818
30
2.0250467969162855e-12
40
2.2499999999999964
210
3.5527136788005136e-14
220
5.5511151231218507e-17
230
1
0
CIRCLE
5
118
100
AcDbEntity
8
0
100
AcDbCircle
10
43.995437712279049
20
113.09977164859464
30
3.6237679523765109e-12
40
2.2500000000000053
210
3.5527136788005136e-14
220
5.5511151231218507e-17
230
1
0
CIRCLE
5
119
100
AcDbEntity
8
0
100
AcDbCircle
10
88.995437712279042
20
113.09977164859468
30
2.0250467969162855e-12
40
2.2499999999999964
210
3.5527136788005136e-14
220
5.5511151231218507e-17
230
1
0
CIRCLE
5
120
100
AcDbEntity
8
0
100
AcDbCircle
10
43.995437712279049
20
1.0997716485946818
30
3.6237679523765109e-12
40
2.2500000000000053
210
3.5527136788005136e-14
220
5.5511151231218507e-17
230
1
0
CIRCLE
5
121
100
AcDbEntity
8
0
100
AcDbCircle
10
133.99543771227906
20
1.0997716485946818
30
4.2632564145606011e-13
40
2.2499999999999964
210
3.5527136788005136e-14
220
5.5511151231218507e-17
230
1
0
CIRCLE
5
122
100
AcDbEntity
8
0
100
AcDbCircle
10
-1.0045622877209888
20
113.09977164859468
30
5.5067062021407764e-12
40
2.2500000000000022
210
3.6359804056474003e-14
220
5.5511151231218507e-17
230
1
0
CIRCLE
5
123
100
AcDbEntity
8
0
100
AcDbCircle
10
133.99543771227906
20
113.09977164859467
30
4.2632564145606011e-13
40
2.2499999999999964
210
3.5527136788005136e-14
220
5.5511151231218507e-17
230
1
0
CIRCLE
5
124
100
AcDbEntity
8
0
100
AcDbCircle
10
-1.0045622877209888
20
1.0997716485946907
30
5.5067062021407764e-12
40
2.2500000000000022
210
3.6359804056474003e-14
220
5.5511151231218507e-17
230
1
0
CIRCLE
5
125
100
AcDbEntity
8
0
100
AcDbCircle
10
-48.999981695070502
20
247.09989798717831
30
7.2830630415410269e-12
40
2.7499999999999947
210
3.6415315207705128e-14
220
5.5511151231218507e-17
230
1
0
CIRCLE
5
126
100
AcDbEntity
8
0
100
AcDbCircle
10
76.000018304929498
20
247.09989798717831
30
2.7355895326763857e-12
40
2.7499999999999947
210
3.6415315207705128e-14
220
5.5511151231218507e-17
230
1
0
CIRCLE
5
127
100
AcDbEntity
8
0
100
AcDbCircle
10
80.000000000009436
20
-32.898044715134425
30
2.3447910280083306e-12
40
3.2500000000000107
210
3.5527136788004927e-14
220
5.5511151231218507e-17
230
1
0
CIRCLE
5
128
100
AcDbEntity
8
0
100
AcDbCircle
10
251.00001830492971
20
267.49972241244899
30
-3.730349362740526e-12
40
3.25
210
3.5527136788004921e-14
220
5.5511151231218507e-17
230
1
0
CIRCLE
5
129
100
AcDbEntity
8
0
100
AcDbCircle
10
351.00001830492943
20
-32.90027758755101
30
-7.531752999057062e-12
40
2.7499999999999858
210
4.7369515717339901e-14
220
5.5511151231218507e-17
230
1
0
CIRCLE
5
130
100
AcDbEntity
8
0
100
AcDbCircle
10
-48.999981695070538
20
-32.90027758755101
30
5.4711790653527714e-12
40
2.7500000000000018
210
3.6452322641859222e-14
220
5.5511151231218507e-17
230
1
0
CIRCLE
5
131
100
AcDbEntity
8
0
100
AcDbCircle
10
181.00001830492948
20
-32.900277587551017
30
-1.2434497875801753e-12
40
3.2500000000000284
210
3.5527136788004927e-14
220
5.5511151231218507e-17
230
1
0
CIRCLE
5
132
100
AcDbEntity
8
0
100
AcDbCircle
10
-19.999999999990564
20
-32.898044715134425
30
6.4304117586289067e-12
40
3.2499999999999996
210
3.7007434154171801e-14
220
5.5511151231218507e-17
230
1
0
CIRCLE
5
133
100
AcDbEntity
8
0
100
AcDbCircle
10
316.00000000005036
20
117.00152714305742
30
-6.0396132539608516e-12
40
15.000000000000002
210
3.5527136788004934e-14
220
5.5511151231218513e-17
230
1
0
CIRCLE
5
134
100
AcDbEntity
8
0
100
AcDbCircle
10
251.00001830492945
20
247.09972241244898
30
-4.7961634663806763e-12
40
2.75
210
3.5527136788004927e-14
220
5.5511151231218507e-17
230
1
0
CIRCLE
5
135
100
AcDbEntity
8
0
100
AcDbCircle
10
251.00001830492945
20
164.09972241244898
30
-4.7606363295926712e-12
40
3.2499999999999929
210
3.6429192995512917e-14
220
5.5511151231218507e-17
230
1
0
CIRCLE
5
136
100
AcDbEntity
8
0
100
AcDbCircle
10
281.00001830492948
20
77.099722412448983
30
-4.7606363295926712e-12
40
3.2499999999999929
210
3.6429192995512917e-14
220
5.5511151231218507e-17
230
1
0
CIRCLE
5
137
100
AcDbEntity
8
0
100
AcDbCircle
10
281.00001830492948
20
2.0997224124489833
30
-4.7606363295926712e-12
40
3.2499999999999929
210
3.6429192995512917e-14
220
5.5511151231218507e-17
230
1
0
CIRCLE
5
138
100
AcDbEntity
8
0
100
AcDbCircle
10
371.000120794552
20
244.59989798706928
30
-8.2067685980291571e-12
40
1.7499999999999716
210
4.0602442043434133e-14
220
5.5511151231218507e-17
230
1
0
CIRCLE
5
139
100
AcDbEntity
8
0
100
AcDbCircle
10
371.000120794552
20
264.59989798706931
30
-8.2067685980291571e-12
40
1.7499999999999716
210
4.0602442043434133e-14
220
5.5511151231218507e-17
230
1
0
CIRCLE
5
140
100
AcDbEntity
8
0
100
AcDbCircle
10
371.00001830492943
20
-32.900277587551017
30
-8.0291329140891321e-12
40
3.2499999999999574
210
3.6429192995512917e-14
220
5.5511151231218507e-17
230
1
0
CIRCLE
5
141
100
AcDbEntity
8
0
100
AcDbCircle
10
281.00001830492948
20
-32.900277587551017
30
-4.7606363295926712e-12
40
3.2499999999999929
210
3.6429192995512917e-14
220
5.5511151231218507e-17
230
1
0
CIRCLE
5
142
100
AcDbEntity
8
0
100
AcDbCircle
10
351.00001830492943
20
-62.900277587551003
30
0
40
2.7500000000000568
210
0
220
-0
230
1
0
CIRCLE
5
143
100
AcDbEntity
8
0
100
AcDbCircle
10
-48.999981695070538
20
-62.900277587551003
30
0
40
2.7500000000000036
210
0
220
-0
230
1
0
CIRCLE
5
144
100
AcDbEntity
8
0
100
AcDbCircle
10
106.00001830492945
20
232.09972241244895
30
0
40
2.5
210
0
220
0
230
1
0
CIRCLE
5
145
100
AcDbEntity
8
0
100
AcDbCircle
10
151.00001830492948
20
-62.900277587551003
30
0
40
2.7500000000000036
210
0
220
0
230
1
0
CIRCLE
5
146
100
AcDbEntity
8
0
100
AcDbCircle
10
-18.999981695070534
20
-62.900277587551003
30
0
40
2.7499999999999969
210
0
220
0
230
1
0
CIRCLE
5
147
100
AcDbEntity
8
0
100
AcDbCircle
10
321.00001830492943
20
-62.900277587551003
30
0
40
2.7499999999999858
210
0
220
0
230
1
0
CIRCLE
5
148
100
AcDbEntity
8
0
100
AcDbCircle
10
133.99543771227906
20
23.099771648594682
30
0
40
2.2499999999999964
210
0
220
0
230
1
0
CIRCLE
5
149
100
AcDbEntity
8
0
100
AcDbCircle
10
351.000120794552
20
247.09972241244878
30
0
40
2.7499999999999858
210
0
220
-0
230
1
0
CIRCLE
5
150
100
AcDbEntity
8
0
100
AcDbCircle
10
351.00457675192274
20
166.09954407200388
30
0
40
2.7499999999999858
210
0
220
0
230
1
0
CIRCLE
5
151
100
AcDbEntity
8
0
100
AcDbCircle
10
251.00001401338403
20
146.1513166545831
30
0
40
2.7500000000000213
210
0
220
0
230
1
0
CIRCLE
5
152
100
AcDbEntity
8
0
100
AcDbCircle
10
351.00457675190853
20
18.099544072003798
30
0
40
2.7499999999999858
210
0
220
0
230
1
0
CIRCLE
5
153
100
AcDbEntity
8
0
100
AcDbCircle
10
-48.999981695051048
20
166.09961221141413
30
0
40
2.7499999999999947
210
0
220
0
230
1
0
CIRCLE
5
154
100
AcDbEntity
8
0
100
AcDbCircle
10
25.995806077956022
20
184.10010610450729
30
0
40
2.7500000000000058
210
0
220
0
230
1
0
CIRCLE
5
155
100
AcDbEntity
8
0
100
AcDbCircle
10
305.99580607795536
20
184.1001061045074
30
0
40
2.7500000000000213
210
0
220
0
230
1
0
CIRCLE
5
156
100
AcDbEntity
8
0
100
AcDbCircle
10
174.00001401338403
20
9.1513166545836349
30
0
40
2.7499999999999858
210
0
220
0
230
1
0
CIRCLE
5
157
100
AcDbEntity
8
0
100
AcDbCircle
10
-48.99998169506182
20
18.099612211414243
30
0
40
2.7499999999999947
210
0
220
0
230
1
0
CIRCLE
5
158
100
AcDbEntity
8
0
100
AcDbCircle
10
88.995437712279042
20
1.0997716485946818
30
0
40
2.2499999999999964
210
-0
220
0
230
1
0
CIRCLE
5
159
100
AcDbEntity
8
0
100
AcDbCircle
10
43.995437712279049
20
113.09977164859464
30
0
40
2.2500000000000053
210
0
220
0
230
1
0
CIRCLE
5
160
100
AcDbEntity
8
0
100
AcDbCircle
10
88.995437712279042
20
113.09977164859468
30
0
40
2.2499999999999964
210
0
220
0
230
1
0
CIRCLE
5
161
100
AcDbEntity
8
0
100
AcDbCircle
10
43.995437712279049
20
1.0997716485946818
30
0
40
2.2500000000000053
210
-0
220
0
230
1
0
CIRCLE
5
162
100
AcDbEntity
8
0
100
AcDbCircle
10
133.99543771227906
20
1.0997716485946818
30
0
40
2.2499999999999964
210
-0
220
0
230
1
0
CIRCLE
5
163
100
AcDbEntity
8
0
100
AcDbCircle
10
-1.0045622877209888
20
113.09977164859468
30
0
40
2.2500000000000022
210
0
220
0
230
1
0
CIRCLE
5
164
100
AcDbEntity
8
0
100
AcDbCircle
10
133.99543771227906
20
113.09977164859467
30
0
40
2.2499999999999964
210
0
220
0
230
1
0
CIRCLE
5
165
100
AcDbEntity
8
0
100
AcDbCircle
10
-1.0045622877209888
20
1.0997716485946907
30
0
40
2.2500000000000022
210
-0
220
0
230
1
0
CIRCLE
5
166
100
AcDbEntity
8
0
100
AcDbCircle
10
-48.999981695070502
20
247.09989798717831
30
0
40
2.7499999999999947
210
0
220
0
230
1
0
CIRCLE
5
167
100
AcDbEntity
8
0
100
AcDbCircle
10
76.000018304929498
20
247.09989798717831
30
0
40
2.7499999999999947
210
0
220
0
230
1
0
CIRCLE
5
168
100
AcDbEntity
8
0
100
AcDbCircle
10
80.000000000009436
20
-32.898044715134425
30
0
40
3.2500000000000107
210
0
220
0
230
1
0
CIRCLE
5
169
100
AcDbEntity
8
0
100
AcDbCircle
10
251.00001830492971
20
267.49972241244899
30
0
40
3.25
210
0
220
0
230
1
0
CIRCLE
5
170
100
AcDbEntity
8
0
100
AcDbCircle
10
351.00001830492943
20
-32.90027758755101
30
0
40
2.7499999999999858
210
0
220
0
230
1
0
CIRCLE
5
171
100
AcDbEntity
8
0
100
AcDbCircle
10
-48.999981695070538
20
-32.90027758755101
30
0
40
2.7500000000000018
210
0
220
0
230
1
0
CIRCLE
5
172
100
AcDbEntity
8
0
100
AcDbCircle
10
181.00001830492948
20
-32.900277587551017
30
0
40
3.2500000000000284
210
0
220
0
230
1
0
CIRCLE
5
173
100
AcDbEntity
8
0
100
AcDbCircle
10
-19.999999999990564
20
-32.898044715134425
30
0
40
3.2499999999999996
210
0
220
0
230
1
0
CIRCLE
5
174
100
AcDbEntity
8
0
100
AcDbCircle
10
316.00000000005036
20
117.00152714305742
30
0
40
15
210
0
220
0
230
1
0
CIRCLE
5
175
100
AcDbEntity
8
0
100
AcDbCircle
10
251.00001830492945
20
247.09972241244898
30
0
40
2.75
210
0
220
-0
230
1
0
CIRCLE
5
176
100
AcDbEntity
8
0
100
AcDbCircle
10
251.00001830492945
20
164.09972241244898
30
0
40
3.2499999999999929
210
0
220
-0
230
1
0
CIRCLE
5
177
100
AcDbEntity
8
0
100
AcDbCircle
10
281.00001830492948
20
77.099722412448983
30
0
40
3.2499999999999929
210
0
220
-0
230
1
0
CIRCLE
5
178
100
AcDbEntity
8
0
100
AcDbCircle
10
281.00001830492948
20
2.0997224124489833
30
0
40
3.2499999999999929
210
0
220
-0
230
1
0
CIRCLE
5
179
100
AcDbEntity
8
0
100
AcDbCircle
10
371.000120794552
20
244.59989798706928
30
0
40
1.7499999999999716
210
0
220
0
230
1
0
CIRCLE
5
180
100
AcDbEntity
8
0
100
AcDbCircle
10
371.000120794552
20
264.59989798706931
30
0
40
1.7499999999999716
210
0
220
0
230
1
0
CIRCLE
5
181
100
AcDbEntity
8
0
100
AcDbCircle
10
371.00001830492943
20
-32.900277587551017
30
0
40
3.2499999999999574
210
0
220
-0
230
1
0
CIRCLE
5
182
100
AcDbEntity
8
0
100
AcDbCircle
10
281.00001830492948
20
-32.900277587551017
30
0
40
3.2499999999999929
210
0
220
-0
230
1
0
LWPOLYLINE
5
183
100
AcDbEntity
8
0
100
AcDbPolyline
90
4
70
1
43
0.0
10
-98.999981695070545
20
277.09972241244895
10
-98.999981695070545
20
-76.900277587551003
10
401.00001830492943
20
-76.900277587551003
10
401.00001830492943
20
277.09972241244895
0
ENDSEC
0
SECTION
2
OBJECTS
0
DICTIONARY
5
C
100
AcDbDictionary
3
ACAD_GROUP
350
D
3
ACAD_MLINESTYLE
350
17
0
DICTIONARY
5
D
100
AcDbDictionary
0
DICTIONARY
5
1A
330
C
100
AcDbDictionary
0
DICTIONARY
5
17
100
AcDbDictionary
0
ENDSEC
0
EOF
