0
SECTION
2
HEADER
9
$INSUNITS
70
4
9
$ACADVER
1
AC1014
9
$HANDSEED
5
FFFF
0
ENDSEC
0
SECTION
2
TABLES
0
TABLE
2
VPORT
5
8
100
AcDbSymbolTable
0
ENDTAB
0
TABLE
2
LTYPE
5
5
100
AcDbSymbolTable
0
LTYPE
5
14
100
AcDbSymbolTableRecord
100
AcDbLinetypeTableRecord
2
BYBLOCK
70
0
0
LTYPE
5
15
100
AcDbSymbolTableRecord
100
AcDbLinetypeTableRecord
2
BYLAYER
70
0
0
LTYPE
5
16
100
AcDbSymbolTableRecord
100
AcDbLinetypeTableRecord
2
DASHED
70
0
3
Dashed __ __ __ __ __ __ __ __ __ __ __ __ __ _
72
65
73
2
40
0.75
49
0.5
74
0
49
-0.25
74
0
0
ENDTAB
0
TABLE
2
LAYER
5
2
100
AcDbSymbolTable
70
2
0
LAYER
5
50
100
AcDbSymbolTableRecord
100
AcDbLayerTableRecord
2
0
70
0
62
7
6
CONTINUOUS
0
ENDTAB
0
TABLE
2
STYLE
5
3
100
AcDbSymbolTable
70
1
0
STYLE
5
11
100
AcDbSymbolTableRecord
100
AcDbTextStyleTableRecord
2
STANDARD
70
0
0
ENDTAB
0
TABLE
2
VIEW
5
6
100
AcDbSymbolTable
70
0
0
ENDTAB
0
TABLE
2
UCS
5
7
100
AcDbSymbolTable
70
0
0
ENDTAB
0
TABLE
2
APPID
5
9
100
AcDbSymbolTable
70
2
0
APPID
5
12
100
AcDbSymbolTableRecord
100
AcDbRegAppTableRecord
2
ACAD
70
0
0
ENDTAB
0
TABLE
2
DIMSTYLE
5
A
100
AcDbSymbolTable
70
1
0
ENDTAB
0
TABLE
2
BLOCK_RECORD
5
1
100
AcDbSymbolTable
70
1
0
BLOCK_RECORD
5
1F
100
AcDbSymbolTableRecord
100
AcDbBlockTableRecord
2
*MODEL_SPACE
0
BLOCK_RECORD
5
1B
100
AcDbSymbolTableRecord
100
AcDbBlockTableRecord
2
*PAPER_SPACE
0
ENDTAB
0
ENDSEC
0
SECTION
2
BLOCKS
0
BLOCK
5
20
100
AcDbEntity
100
AcDbBlockBegin
2
*MODEL_SPACE
0
ENDBLK
5
21
100
AcDbEntity
100
AcDbBlockEnd
0
BLOCK
5
1C
100
AcDbEntity
100
AcDbBlockBegin
2
*PAPER_SPACE
0
ENDBLK
5
1D
100
AcDbEntity
100
AcDbBlockEnd
0
ENDSEC
0
SECTION
2
ENTITIES
0
LWPOLYLINE
5
100
100
AcDbEntity
8
0
100
AcDbPolyline
90
10
70
1
43
0.0
10
-153.8185453383573
20
92.499722412457132
10
111.92952297885164
20
92.499722412457146
42
-0.26501893498756374
10
122.6857945127357
20
86.367816529958517
10
183.58716997645359
20
-16.499967643401003
10
213.000180560339
20
-16.499967643400993
10
213.000180560339
20
277.49972241244893
10
-255.00000321865053
20
277.49972241244893
10
-255.00000321865036
20
-16.499967643400986
10
-225.47619233595918
20
-16.499967643400986
10
-164.57481687224134
20
86.367816529958489
42
-0.26501893498756396
0
LWPOLYLINE
5
101
100
AcDbEntity
8
0
100
AcDbPolyline
90
8
70
1
43
0.0
10
-211.00002288818362
20
162.49972241245592
10
-221.0000032186494
20
162.49972241245592
42
-0.41421356237309509
10
-231.0000032186494
20
172.49972241245592
10
-231.0000032186494
20
197.49972241244893
42
-0.41421356237309509
10
-221.0000032186494
20
207.49972241244893
10
-211.00002288818362
20
207.49972241244899
42
-0.41421356237309509
10
-201.00002288818362
20
197.49972241244899
10
-201.00002288818362
20
172.49972241245592
42
-0.41421356237309509
0
LWPOLYLINE
5
102
100
AcDbEntity
8
0
100
AcDbPolyline
90
2
70
1
43
0.0
10
-213.74997527043558
20
137.48732425127045
42
1.0052101877474138
10
-208.25005083659289
20
137.48353919844044
42
1.0052101877484285
0
LWPOLYLINE
5
103
100
AcDbEntity
8
0
100
AcDbPolyline
90
2
70
1
43
0.0
10
-213.74997485798289
20
232.48723310238032
42
1.0052396296210855
10
-208.25005124904527
20
232.48346926302435
42
1.0052396296215711
0
CIRCLE
5
104
100
AcDbEntity
8
0
100
AcDbCircle
10
198.9999808591449
20
184.99972241245592
30
0
40
2.7499999999999858
210
0
220
5.5411422375861694e-31
230
1
0
CIRCLE
5
105
100
AcDbEntity
8
0
100
AcDbCircle
10
168.99978232528991
20
232.49972241244927
30
0
40
3.2499999999999929
210
0
220
5.5411422375861694e-31
230
1
0
CIRCLE
5
106
100
AcDbEntity
8
0
100
AcDbCircle
10
198.99998085914487
20
54.999877384527458
30
0
40
3.2499999999999929
210
0
220
5.5411422375861694e-31
230
1
0
CIRCLE
5
107
100
AcDbEntity
8
0
100
AcDbCircle
10
-241.00000321865048
20
54.999877384527458
30
0
40
3.2499999999999929
210
0
220
5.5411422375861694e-31
230
1
0
CIRCLE
5
108
100
AcDbEntity
8
0
100
AcDbCircle
10
-241.00000321865022
20
232.49972241244888
30
0
40
3.2499999999999929
210
0
220
5.5411422375861694e-31
230
1
0
CIRCLE
5
109
100
AcDbEntity
8
0
100
AcDbCircle
10
83.000000528684382
20
137.49972241245592
30
0
40
3.2500000000000107
210
0
220
5.5411422375861694e-31
230
1
0
CIRCLE
5
110
100
AcDbEntity
8
0
100
AcDbCircle
10
198.99978232528991
20
232.49972241244927
30
0
40
3.2499999999999929
210
0
220
5.5411422375861694e-31
230
1
0
CIRCLE
5
111
100
AcDbEntity
8
0
100
AcDbCircle
10
-125.00002288818635
20
137.49972241245592
30
0
40
3.2499999999999929
210
0
220
5.5411422375861694e-31
230
1
0
CIRCLE
5
112
100
AcDbEntity
8
0
100
AcDbCircle
10
198.9999808591449
20
107.49972241245592
30
0
40
3.2500000000000355
210
4.4038887646504466e-91
220
5.5411422375861694e-31
230
1
0
CIRCLE
5
113
100
AcDbEntity
8
0
100
AcDbCircle
10
198.9999808591449
20
137.49972241245592
30
0
40
3.25
210
8.8077775293010054e-91
220
5.5411422375861694e-31
230
1
0
CIRCLE
5
114
100
AcDbEntity
8
0
100
AcDbCircle
10
198.99998085914484
20
-2.4999676434009999
30
0
40
3.25
210
8.8077775293010054e-91
220
5.5411422375861694e-31
230
1
0
CIRCLE
5
115
100
AcDbEntity
8
0
100
AcDbCircle
10
168.99998085914484
20
107.49972241245592
30
0
40
3.25
210
7.2664164616732865e-91
220
5.5411422375861694e-31
230
1
0
CIRCLE
5
116
100
AcDbEntity
8
0
100
AcDbCircle
10
168.99998085914484
20
137.49972241245592
30
0
40
3.25
210
7.2664164616732865e-91
220
5.5411422375861694e-31
230
1
0
CIRCLE
5
117
100
AcDbEntity
8
0
100
AcDbCircle
10
-241.00021767471193
20
184.99972241245592
30
0
40
2.7500000000000213
210
4.8741498642079797e-17
220
5.5411422375861685e-31
230
1
0
CIRCLE
5
118
100
AcDbEntity
8
0
100
AcDbCircle
10
198.99978232528991
20
262.49972241244927
30
0
40
3.25
210
1.2867612484213123e-91
220
5.5411422375861694e-31
230
1
0
CIRCLE
5
119
100
AcDbEntity
8
0
100
AcDbCircle
10
168.99978232528991
20
262.49972241244927
30
0
40
3.25
210
1.2867612484213123e-91
220
5.5411422375861694e-31
230
1
0
CIRCLE
5
120
100
AcDbEntity
8
0
100
AcDbCircle
10
83.000000528684382
20
232.4997224124516
30
0
40
3.2500000000000178
210
3.2169031210532813e-92
220
5.5411422375861694e-31
230
1
0
CIRCLE
5
121
100
AcDbEntity
8
0
100
AcDbCircle
10
-20.99999947131866
20
262.49972241245337
30
0
40
3.2500000000000147
210
4.9199694792579597e-92
220
5.5411422375861694e-31
230
1
0
CIRCLE
5
122
100
AcDbEntity
8
0
100
AcDbCircle
10
83.00000052868134
20
107.49972241245338
30
0
40
2.7500000000000036
210
4.8741498642080124e-17
220
5.5411422375861702e-31
230
1
0
CIRCLE
5
123
100
AcDbEntity
8
0
100
AcDbCircle
10
-21.000022888183125
20
107.49972241245351
30
0
40
2.7500000000000036
210
4.8741498642080013e-17
220
5.5411422375861694e-31
230
1
0
CIRCLE
5
124
100
AcDbEntity
8
0
100
AcDbCircle
10
-125.00002288818635
20
232.499722412453
30
0
40
3.2500000000000178
210
4.5951116871083326e-138
220
5.5411422375861694e-31
230
1
0
CIRCLE
5
125
100
AcDbEntity
8
0
100
AcDbCircle
10
-211.00000321865022
20
262.4997224124487
30
0
40
3.25
210
4.5951116871083344e-138
220
5.5411422375861694e-31
230
1
0
CIRCLE
5
126
100
AcDbEntity
8
0
100
AcDbCircle
10
-241.00000321865022
20
262.49972241244888
30
0
40
3.2499999999999645
210
1.8922959535607537e-93
220
5.5411422375861694e-31
230
1
0
CIRCLE
5
127
100
AcDbEntity
8
0
100
AcDbCircle
10
-211.00000321865048
20
107.49972241245592
30
0
40
3.2499999999999645
210
-1.4965715153556705e-77
220
5.5411422375861694e-31
230
1
0
CIRCLE
5
128
100
AcDbEntity
8
0
100
AcDbCircle
10
-241.00000321865042
20
-2.4999676434009999
30
0
40
3.25
210
1.8922959535607532e-93
220
5.5411422375861694e-31
230
1
0
CIRCLE
5
129
100
AcDbEntity
8
0
100
AcDbCircle
10
-241.00000321865048
20
137.49972241245592
30
0
40
3.2499999999999645
210
1.8922959535607537e-93
220
5.5411422375861694e-31
230
1
0
CIRCLE
5
130
100
AcDbEntity
8
0
100
AcDbCircle
10
-241.00000321865048
20
107.49972241245592
30
0
40
3.25
210
0
220
5.5411422375861694e-31
230
1
0
CIRCLE
5
131
100
AcDbEntity
8
0
100
AcDbCircle
10
-145.88902288818244
20
107.49972241245594
30
0
40
2.7500000000000213
210
4.8741498642080013e-17
220
5.5411422375861694e-31
230
1
0
CIRCLE
5
132
100
AcDbEntity
8
0
100
AcDbCircle
10
173.99997711146227
20
161.99972241252101
30
0
40
3.3000000000000185
210
1.7044286702650622e-77
220
5.5411422375861694e-31
230
1
0
CIRCLE
5
133
100
AcDbEntity
8
0
100
AcDbCircle
10
-172.00002288880455
20
207.99972241252539
30
0
40
3.3000000000000185
210
2.1305358378318047e-77
220
5.5411422375861694e-31
230
1
0
CIRCLE
5
134
100
AcDbEntity
8
0
100
AcDbCircle
10
-172.00002288880523
20
161.99972241252533
30
0
40
3.3000000000000185
210
2.1305358378318047e-77
220
5.5411422375861694e-31
230
1
0
CIRCLE
5
135
100
AcDbEntity
8
0
100
AcDbCircle
10
173.99997711146079
20
207.99972241252109
30
0
40
3.3000000000000185
210
1.7044286702650622e-77
220
5.5411422375861694e-31
230
1
0
CIRCLE
5
136
100
AcDbEntity
8
0
100
AcDbCircle
10
-185.00002288880455
20
207.99972241252561
30
0
40
3.3000000000000185
210
2.1305358378318047e-77
220
5.5411422375861694e-31
230
1
0
CIRCLE
5
137
100
AcDbEntity
8
0
100
AcDbCircle
10
-185.00002288880523
20
161.99972241252553
30
0
40
3.3000000000000185
210
2.1305358378318047e-77
220
5.5411422375861694e-31
230
1
0
CIRCLE
5
138
100
AcDbEntity
8
0
100
AcDbCircle
10
176.99997711181641
20
85.499722412448904
30
0
40
2.5
210
0
220
5.5411422375861694e-31
230
1
0
CIRCLE
5
139
100
AcDbEntity
8
0
100
AcDbCircle
10
-219.00002288818368
20
85.499722412457146
30
0
40
2.5
210
0
220
5.5411422375861694e-31
230
1
0
CIRCLE
5
140
100
AcDbEntity
8
0
100
AcDbCircle
10
198.9999808591449
20
184.99972241245592
30
0
40
2.7499999999999858
210
0
220
-0
230
1
0
CIRCLE
5
141
100
AcDbEntity
8
0
100
AcDbCircle
10
168.99978232528991
20
232.49972241244927
30
0
40
3.2499999999999929
210
0
220
-0
230
1
0
CIRCLE
5
142
100
AcDbEntity
8
0
100
AcDbCircle
10
198.99998085914487
20
54.999877384527458
30
0
40
3.2499999999999929
210
0
220
-0
230
1
0
CIRCLE
5
143
100
AcDbEntity
8
0
100
AcDbCircle
10
-241.00000321865048
20
54.999877384527458
30
0
40
3.2499999999999929
210
0
220
-0
230
1
0
CIRCLE
5
144
100
AcDbEntity
8
0
100
AcDbCircle
10
-241.00000321865022
20
232.49972241244888
30
0
40
3.2499999999999929
210
0
220
-0
230
1
0
CIRCLE
5
145
100
AcDbEntity
8
0
100
AcDbCircle
10
83.000000528684382
20
137.49972241245592
30
0
40
3.2500000000000107
210
0
220
-0
230
1
0
CIRCLE
5
146
100
AcDbEntity
8
0
100
AcDbCircle
10
198.99978232528991
20
232.49972241244927
30
0
40
3.2499999999999929
210
0
220
-0
230
1
0
CIRCLE
5
147
100
AcDbEntity
8
0
100
AcDbCircle
10
-125.00002288818635
20
137.49972241245592
30
0
40
3.2499999999999929
210
0
220
-0
230
1
0
LWPOLYLINE
5
148
100
AcDbEntity
8
0
100
AcDbPolyline
90
10
70
1
43
0.0
10
-153.8185453383573
20
92.499722412457132
10
111.92952297885164
20
92.499722412457146
42
-0.26501893498756374
10
122.6857945127357
20
86.367816529958517
10
183.58716997645359
20
-16.499967643401003
10
213.000180560339
20
-16.499967643400993
10
213.000180560339
20
277.49972241244893
10
-255.00000321865053
20
277.49972241244893
10
-255.00000321865036
20
-16.499967643400986
10
-225.47619233595918
20
-16.499967643400986
10
-164.57481687224134
20
86.367816529958489
42
-0.26501893498756396
0
CIRCLE
5
149
100
AcDbEntity
8
0
100
AcDbCircle
10
198.9999808591449
20
107.49972241245592
30
0
40
3.2500000000000355
210
0
220
-0
230
1
0
CIRCLE
5
150
100
AcDbEntity
8
0
100
AcDbCircle
10
198.9999808591449
20
137.49972241245592
30
0
40
3.25
210
0
220
-0
230
1
0
CIRCLE
5
151
100
AcDbEntity
8
0
100
AcDbCircle
10
198.99998085914484
20
-2.4999676434009999
30
0
40
3.25
210
0
220
-0
230
1
0
CIRCLE
5
152
100
AcDbEntity
8
0
100
AcDbCircle
10
168.99998085914484
20
107.49972241245592
30
0
40
3.25
210
0
220
-0
230
1
0
CIRCLE
5
153
100
AcDbEntity
8
0
100
AcDbCircle
10
168.99998085914484
20
137.49972241245592
30
0
40
3.25
210
0
220
-0
230
1
0
CIRCLE
5
154
100
AcDbEntity
8
0
100
AcDbCircle
10
-241.00021767471193
20
184.99972241245592
30
0
40
2.7500000000000213
210
-0
220
0
230
1
0
CIRCLE
5
155
100
AcDbEntity
8
0
100
AcDbCircle
10
198.99978232528991
20
262.49972241244927
30
0
40
3.25
210
0
220
-0
230
1
0
CIRCLE
5
156
100
AcDbEntity
8
0
100
AcDbCircle
10
168.99978232528991
20
262.49972241244927
30
0
40
3.25
210
0
220
-0
230
1
0
CIRCLE
5
157
100
AcDbEntity
8
0
100
AcDbCircle
10
83.000000528684382
20
232.4997224124516
30
0
40
3.2500000000000178
210
0
220
-0
230
1
0
CIRCLE
5
158
100
AcDbEntity
8
0
100
AcDbCircle
10
-20.99999947131866
20
262.49972241245337
30
0
40
3.2500000000000147
210
0
220
-0
230
1
0
CIRCLE
5
159
100
AcDbEntity
8
0
100
AcDbCircle
10
83.00000052868134
20
107.49972241245338
30
0
40
2.7500000000000036
210
0
220
0
230
1
0
CIRCLE
5
160
100
AcDbEntity
8
0
100
AcDbCircle
10
-21.000022888183125
20
107.49972241245351
30
0
40
2.7500000000000036
210
0
220
0
230
1
0
CIRCLE
5
161
100
AcDbEntity
8
0
100
AcDbCircle
10
-125.00002288818635
20
232.499722412453
30
0
40
3.2500000000000178
210
0
220
-0
230
1
0
CIRCLE
5
162
100
AcDbEntity
8
0
100
AcDbCircle
10
-211.00000321865022
20
262.4997224124487
30
0
40
3.25
210
0
220
-0
230
1
0
CIRCLE
5
163
100
AcDbEntity
8
0
100
AcDbCircle
10
-241.00000321865022
20
262.49972241244888
30
0
40
3.2499999999999645
210
0
220
-0
230
1
0
CIRCLE
5
164
100
AcDbEntity
8
0
100
AcDbCircle
10
-211.00000321865048
20
107.49972241245592
30
0
40
3.2499999999999645
210
-0
220
0
230
1
0
CIRCLE
5
165
100
AcDbEntity
8
0
100
AcDbCircle
10
-241.00000321865042
20
-2.4999676434009999
30
0
40
3.25
210
0
220
-0
230
1
0
CIRCLE
5
166
100
AcDbEntity
8
0
100
AcDbCircle
10
-241.00000321865048
20
137.49972241245592
30
0
40
3.2499999999999645
210
0
220
-0
230
1
0
CIRCLE
5
167
100
AcDbEntity
8
0
100
AcDbCircle
10
-241.00000321865048
20
107.49972241245592
30
0
40
3.25
210
0
220
-0
230
1
0
CIRCLE
5
168
100
AcDbEntity
8
0
100
AcDbCircle
10
-145.88902288818244
20
107.49972241245594
30
0
40
2.7500000000000213
210
0
220
0
230
1
0
CIRCLE
5
169
100
AcDbEntity
8
0
100
AcDbCircle
10
173.99997711146227
20
161.99972241252101
30
0
40
3.3000000000000185
210
0
220
-0
230
1
0
CIRCLE
5
170
100
AcDbEntity
8
0
100
AcDbCircle
10
-172.00002288880455
20
207.99972241252539
30
0
40
3.3000000000000185
210
0
220
-0
230
1
0
CIRCLE
5
171
100
AcDbEntity
8
0
100
AcDbCircle
10
-172.00002288880523
20
161.99972241252533
30
0
40
3.3000000000000185
210
0
220
-0
230
1
0
CIRCLE
5
172
100
AcDbEntity
8
0
100
AcDbCircle
10
173.99997711146079
20
207.99972241252109
30
0
40
3.3000000000000185
210
0
220
-0
230
1
0
CIRCLE
5
173
100
AcDbEntity
8
0
100
AcDbCircle
10
-185.00002288880455
20
207.99972241252561
30
0
40
3.3000000000000185
210
0
220
-0
230
1
0
CIRCLE
5
174
100
AcDbEntity
8
0
100
AcDbCircle
10
-185.00002288880523
20
161.99972241252553
30
0
40
3.3000000000000185
210
0
220
-0
230
1
0
LWPOLYLINE
5
175
100
AcDbEntity
8
0
100
AcDbPolyline
90
8
70
1
43
0.0
10
-211.00002288818362
20
162.49972241245592
10
-221.0000032186494
20
162.49972241245592
42
-0.41421356237309509
10
-231.0000032186494
20
172.49972241245592
10
-231.0000032186494
20
197.49972241244893
42
-0.41421356237309509
10
-221.0000032186494
20
207.49972241244893
10
-211.00002288818362
20
207.49972241244899
42
-0.41421356237309509
10
-201.00002288818362
20
197.49972241244899
10
-201.00002288818362
20
172.49972241245592
42
-0.41421356237309509
0
LWPOLYLINE
5
176
100
AcDbEntity
8
0
100
AcDbPolyline
90
2
70
1
43
0.0
10
-213.74997527043558
20
137.48732425127045
42
1.0052101877473978
10
-208.25005083659289
20
137.48353919844033
42
1.0052101877484447
0
LWPOLYLINE
5
177
100
AcDbEntity
8
0
100
AcDbPolyline
90
2
70
1
43
0.0
10
-213.74997485798289
20
232.48723310238032
42
1.0052396296211226
10
-208.25005124904533
20
232.48346926302443
42
1.0052396296215551
0
CIRCLE
5
178
100
AcDbEntity
8
0
100
AcDbCircle
10
176.99997711181641
20
85.499722412448904
30
0
40
2.5
210
0
220
-0
230
1
0
CIRCLE
5
179
100
AcDbEntity
8
0
100
AcDbCircle
10
-219.00002288818368
20
85.499722412457146
30
0
40
2.5
210
0
220
-0
230
1
0
ENDSEC
0
SECTION
2
OBJECTS
0
DICTIONARY
5
C
100
AcDbDictionary
3
ACAD_GROUP
350
D
3
ACAD_MLINESTYLE
350
17
0
DICTIONARY
5
D
100
AcDbDictionary
0
DICTIONARY
5
1A
330
C
100
AcDbDictionary
0
DICTIONARY
5
17
100
AcDbDictionary
0
ENDSEC
0
EOF
